<?xml version="1.0" encoding="utf-8"?>
<!-- Generator: Adobe Illustrator 26.0.3, SVG Export Plug-In . SVG Version: 6.00 Build 0)  -->
<svg version="1.1" id="Layer_1" xmlns="http://www.w3.org/2000/svg" xmlns:xlink="http://www.w3.org/1999/xlink" x="0px" y="0px"
	 viewBox="0 0 288 288" style="enable-background:new 0 0 288 288;" xml:space="preserve">
<style type="text/css">
	.st0{fill:#6667A8;}
</style>
<g>
	<path class="st0" d="M198,0H90C40.3,0,0,40.3,0,90v108c0,49.7,40.3,90,90,90h108c49.7,0,90-40.3,90-90V90C288,40.3,247.7,0,198,0z
		 M259.9,115.1L124.3,258.2c-11.8,12.4-25.4,9.2-30.2-7.2L37.9,62C33,45.6,42.6,35.5,59.3,39.5L251,85.3
		C267.6,89.3,271.6,102.7,259.9,115.1z"/>
</g>
<g>
	<path class="st0" d="M198.6,93.3l-95-22.7c-25.6-6.1-40.5,9.5-32.9,34.8L98.4,199c7.5,25.3,28.5,30.3,46.6,11.1l67.2-70.9
		C230.3,120.1,224.2,99.4,198.6,93.3z M173.6,163.4l-10.1,1c-2.2,0.2-3.4-1.4-3.7-3.6l-5.1-36.7c-0.4-2.4-3.7-2.1-4.2,0.5l-3.6,25.6
		c-0.3,2.1-2.3,4.1-4.5,4.3L130,156c-2.2,0.2-4.5-1.2-5.3-3.2l-9-24.1c-0.9-2-4-2.2-4,0.5l3.1,36.6c0.2,2.2-1.9,4.4-4,4.6l-9.5,1.2
		c-2.2,0.2-4.1-1.3-4.2-3.5l-4.7-61.2c-0.2-2.2,2-5.2,4.8-5.5l21.2-2.5c2.2-0.2,4,0.9,4.7,2.9l7.5,24.4c1,2.4,3.6,0.9,3.7-0.4
		l2.3-25.6c0.3-2.1,1.4-3.6,3.6-3.9l21.5-2.5c2.2-0.2,5.5,1,6,4.2l9.2,60.9C177.2,161.2,175.7,163.1,173.6,163.4z"/>
</g>
</svg>
