<?xml version="1.0" encoding="utf-8"?>
<!-- Generator: Adobe Illustrator 26.0.3, SVG Export Plug-In . SVG Version: 6.00 Build 0)  -->
<svg version="1.1" id="Layer_1" xmlns="http://www.w3.org/2000/svg" xmlns:xlink="http://www.w3.org/1999/xlink" x="0px" y="0px"
	 viewBox="0 0 400 180" style="enable-background:new 0 0 400 180;" xml:space="preserve">
<style type="text/css">
	.st0{clip-path:url(#SVGID_00000154392223162718693550000011151994111981283203_);}
	.st1{clip-path:url(#SVGID_00000040541124574387324930000010012104246936595889_);}
	.st2{clip-path:url(#SVGID_00000070801855067609488760000002834001527215276953_);}
	.st3{clip-path:url(#SVGID_00000147197203796757104340000003057675084112059812_);}
	.st4{clip-path:url(#SVGID_00000040545354366736889340000003303174124932866182_);}
	.st5{clip-path:url(#SVGID_00000114756822901094331400000016416368744609118383_);}
	.st6{clip-path:url(#SVGID_00000064348768602316760550000012141328217213527738_);}
	.st7{clip-path:url(#SVGID_00000145760321576765615630000014543014082748273599_);}
	.st8{clip-path:url(#SVGID_00000035490570559213361600000014548418665036158379_);}
	.st9{clip-path:url(#SVGID_00000055696784718857241830000001777586452488744114_);}
	.st10{clip-path:url(#SVGID_00000168835522559151179480000006146054386969752241_);}
	.st11{clip-path:url(#SVGID_00000031889657555003000480000009130823972151963552_);}
	.st12{clip-path:url(#SVGID_00000090270504743430784250000017716689594256116123_);}
	.st13{clip-path:url(#SVGID_00000146492214282325428700000014313242202027876253_);}
	.st14{clip-path:url(#SVGID_00000167383894565020495810000004468117356320698557_);}
	.st15{clip-path:url(#SVGID_00000156575725141106548070000006135379042035422103_);}
	.st16{clip-path:url(#SVGID_00000042708708794604109880000003503580445002595461_);}
	.st17{clip-path:url(#SVGID_00000133511046594380509250000005004717717443910307_);}
	.st18{clip-path:url(#SVGID_00000102527606581545738300000015176947545667713426_);}
	.st19{clip-path:url(#SVGID_00000068646821386712443700000006254722529746758573_);}
	.st20{clip-path:url(#SVGID_00000093865040096477425560000002061819361464378533_);}
	.st21{clip-path:url(#SVGID_00000122723015053246735970000008522910118699763604_);}
	.st22{clip-path:url(#SVGID_00000163053742704815573000000002397332136860250252_);}
	.st23{clip-path:url(#SVGID_00000062871001076462802060000013797894830831851700_);}
	.st24{clip-path:url(#SVGID_00000070091770151212226920000013139146434614632621_);}
	.st25{clip-path:url(#SVGID_00000049934824100094561930000000638298191022674817_);}
	.st26{clip-path:url(#SVGID_00000180338608244784223550000011338823121768372650_);}
	.st27{clip-path:url(#SVGID_00000166668738362997485680000012615642074330184845_);}
	.st28{clip-path:url(#SVGID_00000137105311208155058890000006328132132560860826_);}
	.st29{clip-path:url(#SVGID_00000121275763431350096400000013419885308352033203_);}
	.st30{clip-path:url(#SVGID_00000090278178463264405390000008844844458820604325_);}
	.st31{clip-path:url(#SVGID_00000088116882040446650370000002347702091130320003_);}
	.st32{clip-path:url(#SVGID_00000043451820624810199980000017217282243337757108_);}
	.st33{clip-path:url(#SVGID_00000022548582952173759490000013349892418639931832_);}
	.st34{clip-path:url(#SVGID_00000121988908118020073210000009677344256537581730_);}
</style>
<g>
	<defs>
		<rect id="SVGID_1_" x="-0.5" y="1.3" width="400" height="176.5"/>
	</defs>
	<clipPath id="SVGID_00000000189907260766271850000010760161943496443544_">
		<use xlink:href="#SVGID_1_"  style="overflow:visible;"/>
	</clipPath>
	<path style="clip-path:url(#SVGID_00000000189907260766271850000010760161943496443544_);" d="M86.5,20L9.6,1.6
		C2.9,0.1-0.9,4.1,1,10.7l22.5,75.8c2,6.6,7.4,7.9,12.1,2.9L90.1,32C94.8,27,93.2,21.6,86.5,20 M71.8,41.6L44,71
		c-7.5,7.9-16.2,5.8-19.3-4.6L13.1,27.5c-3.1-10.5,3-17,13.7-14.4l39.4,9.4C76.8,25.1,79.3,33.7,71.8,41.6"/>
</g>
<g>
	<defs>
		<rect id="SVGID_00000008132520782285013480000011085002462191349669_" x="-0.5" y="1.3" width="400" height="176.5"/>
	</defs>
	<clipPath id="SVGID_00000104700672148516053420000015028947767850090425_">
		<use xlink:href="#SVGID_00000008132520782285013480000011085002462191349669_"  style="overflow:visible;"/>
	</clipPath>
	<path style="clip-path:url(#SVGID_00000104700672148516053420000015028947767850090425_);" d="M26.2,55.2c-0.9,0.1-1.7-0.6-1.8-1.5
		l-2-25.8c-0.1-0.9,0.8-2.2,2-2.3l9-1c0.9-0.1,1.7,0.4,2,1.2l3.2,10.3c0.4,1,1.5,0.4,1.5-0.2l1-10.8c0.1-0.9,0.6-1.5,1.5-1.6
		l9.1-1.1c0.9-0.1,2.3,0.4,2.5,1.8l3.9,25.7c0.1,0.9-0.5,1.7-1.4,1.8l-4.2,0.4c-0.9,0.1-1.4-0.6-1.6-1.5l-2.1-15.5
		c-0.2-1-1.5-0.9-1.8,0.2l-1.5,10.8c-0.1,0.9-1,1.7-1.9,1.8l-5.2,0.6c-0.9,0.1-1.9-0.5-2.2-1.4L32.4,37c-0.4-0.8-1.7-0.9-1.7,0.2
		L32,52.6c0.1,0.9-0.8,1.8-1.7,2L26.2,55.2z"/>
</g>
<g>
	<defs>
		<rect id="SVGID_00000077288000783857555200000012448279346091679368_" x="-0.5" y="1.3" width="400" height="176.5"/>
	</defs>
	<clipPath id="SVGID_00000130610949863787919150000010632845476933709195_">
		<use xlink:href="#SVGID_00000077288000783857555200000012448279346091679368_"  style="overflow:visible;"/>
	</clipPath>
	<polygon style="clip-path:url(#SVGID_00000130610949863787919150000010632845476933709195_);" points="16.7,139.9 16.7,113.2 
		24.3,113.2 30.2,134.1 36.2,113.2 43.8,113.2 43.8,139.9 39.4,139.9 39.4,118 38.8,118 32.5,138.8 28,138.8 21.7,118 21.1,118 
		21.1,139.9 	"/>
</g>
<g>
	<defs>
		<rect id="SVGID_00000040572174436996170160000015992612897363096730_" x="-0.5" y="1.3" width="400" height="176.5"/>
	</defs>
	<clipPath id="SVGID_00000116197210807215685120000016282494216746379919_">
		<use xlink:href="#SVGID_00000040572174436996170160000015992612897363096730_"  style="overflow:visible;"/>
	</clipPath>
	<path style="clip-path:url(#SVGID_00000116197210807215685120000016282494216746379919_);" d="M63.1,136.4l1.1-0.1l0.1,3.2
		c-3,0.6-5.6,0.9-7.9,0.9c-2.9,0-5-0.8-6.2-2.4c-1.3-1.6-1.9-4.1-1.9-7.6c0-6.9,2.8-10.4,8.5-10.4c5.5,0,8.2,3,8.2,8.9l-0.3,3H52.6
		c0,1.6,0.4,2.8,1.1,3.6c0.7,0.8,1.9,1.1,3.8,1.1C59.2,136.7,61.1,136.6,63.1,136.4 M60.8,128.7c0-1.9-0.3-3.3-0.9-4
		c-0.6-0.8-1.6-1.2-3.1-1.2s-2.5,0.4-3.2,1.2c-0.7,0.8-1,2.1-1,4H60.8z"/>
</g>
<g>
	<defs>
		<rect id="SVGID_00000126300126408106413740000010117092086885834916_" x="-0.5" y="1.3" width="400" height="176.5"/>
	</defs>
	<clipPath id="SVGID_00000178206153590936421270000014369199601669437839_">
		<use xlink:href="#SVGID_00000126300126408106413740000010117092086885834916_"  style="overflow:visible;"/>
	</clipPath>
	<path style="clip-path:url(#SVGID_00000178206153590936421270000014369199601669437839_);" d="M85,112.3V140h-4.2v-1
		c-1.9,1-3.6,1.4-5.2,1.4c-2.6,0-4.4-0.8-5.6-2.3s-1.8-4.1-1.8-7.7c0-3.6,0.7-6.3,2-7.9s3.4-2.5,6.2-2.5c0.9,0,2.4,0.2,4.5,0.5v-8.2
		C80.9,112.3,85,112.3,85,112.3z M80.1,135.9l0.7-0.3V124c-1.6-0.3-3-0.4-4.3-0.4c-2.6,0-3.9,2.2-3.9,6.6c0,2.4,0.3,4.1,0.9,5
		s1.6,1.4,2.9,1.4C77.6,136.6,78.9,136.3,80.1,135.9"/>
</g>
<g>
	<defs>
		<rect id="SVGID_00000088840760104159909470000005167413871917609122_" x="-0.5" y="1.3" width="400" height="176.5"/>
	</defs>
	<clipPath id="SVGID_00000119118337767709402360000015454799252164505523_">
		<use xlink:href="#SVGID_00000088840760104159909470000005167413871917609122_"  style="overflow:visible;"/>
	</clipPath>
	<path style="clip-path:url(#SVGID_00000119118337767709402360000015454799252164505523_);" d="M90.1,112.6h4.3v4.5h-4.3V112.6z
		 M90.1,120.4h4.3v19.5h-4.3V120.4z"/>
</g>
<g>
	<defs>
		<rect id="SVGID_00000023277174060731691280000006752068910980493188_" x="-0.5" y="1.3" width="400" height="176.5"/>
	</defs>
	<clipPath id="SVGID_00000081624423932731099350000013260355546062986375_">
		<use xlink:href="#SVGID_00000023277174060731691280000006752068910980493188_"  style="overflow:visible;"/>
	</clipPath>
	<path style="clip-path:url(#SVGID_00000081624423932731099350000013260355546062986375_);" d="M114,126.4v8.9c0,0.6,0.2,1,0.4,1.3
		c0.3,0.3,0.7,0.4,1.3,0.5l-0.1,3.2c-2.2,0-4-0.5-5.2-1.4c-2.1,1-4.2,1.4-6.3,1.4c-3.9,0-5.8-2.1-5.8-6.2c0-2,0.5-3.4,1.6-4.3
		s2.7-1.4,4.9-1.6l5-0.4v-1.4c0-1-0.2-1.8-0.7-2.2c-0.5-0.4-1.1-0.6-2-0.6c-1.7,0-3.8,0.1-6.2,0.3l-1.2,0.1l-0.2-3
		c2.8-0.7,5.4-1,7.8-1s4.1,0.5,5.2,1.5S114,124.2,114,126.4 M105.2,131.3c-1.8,0.2-2.7,1.1-2.7,2.9c0,1.8,0.8,2.7,2.4,2.7
		c1.3,0,2.7-0.2,4.1-0.6l0.7-0.2v-5.2L105.2,131.3z"/>
</g>
<g>
	<defs>
		<rect id="SVGID_00000134951430964131364090000014764827884536248740_" x="-0.5" y="1.3" width="400" height="176.5"/>
	</defs>
	<clipPath id="SVGID_00000104670736167530763060000008993702792321998977_">
		<use xlink:href="#SVGID_00000134951430964131364090000014764827884536248740_"  style="overflow:visible;"/>
	</clipPath>
	<path style="clip-path:url(#SVGID_00000104670736167530763060000008993702792321998977_);" d="M133.5,140.4c-3.9,0-6.6-1.1-7.9-3.2
		c-1.4-2.2-2.1-5.7-2.1-10.7c0-4.9,0.7-8.5,2.1-10.6s4-3.1,7.9-3.1c2.3,0,4.9,0.3,7.7,1l-0.2,3.5c-2.3-0.4-4.7-0.6-7-0.6
		s-3.9,0.7-4.8,2.1c-0.8,1.4-1.2,4-1.2,7.9c0,3.8,0.4,6.5,1.2,7.9s2.4,2.1,4.7,2.1s4.7-0.2,7.1-0.6l0.1,3.6
		C138.5,140.1,135.9,140.4,133.5,140.4"/>
</g>
<g>
	<defs>
		<rect id="SVGID_00000041980113611163715620000017355664480726518450_" x="-0.5" y="1.3" width="400" height="176.5"/>
	</defs>
	<clipPath id="SVGID_00000000936248254622926840000012890198632158840237_">
		<use xlink:href="#SVGID_00000041980113611163715620000017355664480726518450_"  style="overflow:visible;"/>
	</clipPath>
	<path style="clip-path:url(#SVGID_00000000936248254622926840000012890198632158840237_);" d="M146,122.5c1.3-1.7,3.6-2.5,6.7-2.5
		s5.4,0.8,6.7,2.5s2,4.2,2,7.6c0,3.4-0.7,5.9-2,7.7s-3.6,2.6-6.8,2.6s-5.5-0.9-6.8-2.6s-2-4.3-2-7.7
		C144,126.8,144.7,124.2,146,122.5 M149.2,135.2c0.6,1,1.8,1.6,3.5,1.6s2.9-0.5,3.5-1.6c0.6-1,0.9-2.7,0.9-5.1s-0.3-4-1-5
		c-0.6-1-1.8-1.5-3.5-1.5s-2.8,0.5-3.5,1.5s-1,2.7-1,5C148.3,132.5,148.6,134.2,149.2,135.2"/>
</g>
<g>
	<defs>
		<rect id="SVGID_00000008853357233042448230000003803135152513028542_" x="-0.5" y="1.3" width="400" height="176.5"/>
	</defs>
	<clipPath id="SVGID_00000160901093974045378710000002621873892201918641_">
		<use xlink:href="#SVGID_00000008853357233042448230000003803135152513028542_"  style="overflow:visible;"/>
	</clipPath>
	
		<rect x="165.9" y="112.3" style="clip-path:url(#SVGID_00000160901093974045378710000002621873892201918641_);" width="4.3" height="27.7"/>
</g>
<g>
	<defs>
		<rect id="SVGID_00000160907810150761686240000009743734761554855602_" x="-0.5" y="1.3" width="400" height="176.5"/>
	</defs>
	<clipPath id="SVGID_00000178896437350484423610000000710957300487141044_">
		<use xlink:href="#SVGID_00000160907810150761686240000009743734761554855602_"  style="overflow:visible;"/>
	</clipPath>
	
		<rect x="175.8" y="112.3" style="clip-path:url(#SVGID_00000178896437350484423610000000710957300487141044_);" width="4.3" height="27.7"/>
</g>
<g>
	<defs>
		<rect id="SVGID_00000055676933669740701640000015153987367770750362_" x="-0.5" y="1.3" width="400" height="176.5"/>
	</defs>
	<clipPath id="SVGID_00000074414470254141365010000018190495237645921927_">
		<use xlink:href="#SVGID_00000055676933669740701640000015153987367770750362_"  style="overflow:visible;"/>
	</clipPath>
	<path style="clip-path:url(#SVGID_00000074414470254141365010000018190495237645921927_);" d="M199.3,136.4l1.1-0.1l0.1,3.2
		c-3,0.6-5.6,0.9-7.9,0.9c-2.9,0-5-0.8-6.2-2.4c-1.3-1.6-1.9-4.1-1.9-7.6c0-6.9,2.8-10.4,8.5-10.4c5.5,0,8.2,3,8.2,8.9l-0.3,3h-12.1
		c0,1.6,0.4,2.8,1.1,3.6c0.7,0.8,1.9,1.1,3.8,1.1C195.5,136.7,197.4,136.6,199.3,136.4 M197,128.7c0-1.9-0.3-3.3-0.9-4
		c-0.6-0.8-1.6-1.2-3.1-1.2s-2.5,0.4-3.2,1.2c-0.7,0.8-1,2.1-1,4H197z"/>
</g>
<g>
	<defs>
		<rect id="SVGID_00000019640310319066833580000009062387236716904865_" x="-0.5" y="1.3" width="400" height="176.5"/>
	</defs>
	<clipPath id="SVGID_00000002345229366408290300000002190231629989324466_">
		<use xlink:href="#SVGID_00000019640310319066833580000009062387236716904865_"  style="overflow:visible;"/>
	</clipPath>
	<path style="clip-path:url(#SVGID_00000002345229366408290300000002190231629989324466_);" d="M222.3,142.6c0,4.3-3.1,6.4-9.3,6.4
		c-3,0-5.2-0.4-6.6-1.2c-1.4-0.8-2.1-2.3-2.1-4.4c0-1,0.2-1.8,0.7-2.5s1.2-1.4,2.3-2.2c-0.9-0.6-1.3-1.5-1.3-2.9
		c0-0.5,0.4-1.4,1.1-2.5l0.4-0.6c-1.9-1.1-2.8-3.1-2.8-5.9c0-2.3,0.7-4.1,2.1-5.2c1.4-1.1,3.3-1.6,5.7-1.6c1.1,0,2.3,0.1,3.4,0.4
		l0.6,0.1l6.1-0.2v3.4l-3.2-0.2c0.7,0.9,1.1,2,1.1,3.2c0,2.6-0.6,4.3-1.9,5.3c-1.3,1-3.3,1.5-6,1.5c-0.7,0-1.3-0.1-1.7-0.2
		c-0.4,0.9-0.5,1.6-0.5,2.1s0.2,0.8,0.7,1s1.6,0.3,3.5,0.3c3.1,0,5.2,0.4,6.4,1.2C221.7,138.8,222.3,140.4,222.3,142.6 M208.5,143
		c0,0.9,0.4,1.6,1.1,2c0.7,0.4,2,0.6,3.8,0.6c3.2,0,4.7-0.9,4.7-2.7c0-1-0.3-1.7-0.8-1.9c-0.6-0.3-1.7-0.4-3.3-0.4l-3.8-0.2
		c-0.6,0.5-1,0.9-1.2,1.3C208.6,141.9,208.5,142.4,208.5,143 M209.7,129.5c0.6,0.6,1.5,0.8,2.8,0.8s2.2-0.3,2.8-0.8
		c0.6-0.6,0.8-1.4,0.8-2.6s-0.3-2.1-0.9-2.6c-0.6-0.6-1.5-0.8-2.8-0.8c-2.4,0-3.6,1.2-3.6,3.5C208.8,128,209.1,128.9,209.7,129.5"/>
</g>
<g>
	<defs>
		<rect id="SVGID_00000091726058265303124560000002181357543242256054_" x="-0.5" y="1.3" width="400" height="176.5"/>
	</defs>
	<clipPath id="SVGID_00000130634220496001123500000017265249192589204152_">
		<use xlink:href="#SVGID_00000091726058265303124560000002181357543242256054_"  style="overflow:visible;"/>
	</clipPath>
	<path style="clip-path:url(#SVGID_00000130634220496001123500000017265249192589204152_);" d="M239.7,136.4l1.1-0.1l0.1,3.2
		c-3,0.6-5.6,0.9-7.9,0.9c-2.9,0-5-0.8-6.2-2.4c-1.3-1.6-1.9-4.1-1.9-7.6c0-6.9,2.8-10.4,8.5-10.4c5.5,0,8.2,3,8.2,8.9l-0.3,3h-12.1
		c0,1.6,0.4,2.8,1.1,3.6c0.7,0.8,1.9,1.1,3.8,1.1C235.8,136.7,237.7,136.6,239.7,136.4 M237.3,128.7c0-1.9-0.3-3.3-0.9-4
		c-0.6-0.8-1.6-1.2-3.1-1.2s-2.5,0.4-3.2,1.2c-0.7,0.8-1,2.1-1,4H237.3z"/>
</g>
<g>
	<defs>
		<rect id="SVGID_00000073697358228086163930000006862393328079243672_" x="-0.5" y="1.3" width="400" height="176.5"/>
	</defs>
	<clipPath id="SVGID_00000150089460776721600270000002369953467888903558_">
		<use xlink:href="#SVGID_00000073697358228086163930000006862393328079243672_"  style="overflow:visible;"/>
	</clipPath>
	<path style="clip-path:url(#SVGID_00000150089460776721600270000002369953467888903558_);" d="M260,139.9h-9.3v-26.8h9.3
		c4.1,0,6.9,1,8.4,3.1s2.3,5.4,2.3,9.8c0,2.3-0.1,4.2-0.5,5.8c-0.3,1.6-0.8,3-1.6,4.3C267.2,138.7,264.3,139.9,260,139.9
		 M266.3,126.1c0-3.2-0.4-5.6-1.2-7s-2.5-2.1-5-2.1h-4.9v19.1h4.9c2.6,0,4.3-1,5.2-2.9c0.4-1,0.7-2,0.8-3.1
		C266.2,129.1,266.3,127.7,266.3,126.1"/>
</g>
<g>
	<defs>
		<rect id="SVGID_00000109714016010678055690000003722089836641764523_" x="-0.5" y="1.3" width="400" height="176.5"/>
	</defs>
	<clipPath id="SVGID_00000119815392739713245980000018221600077006652033_">
		<use xlink:href="#SVGID_00000109714016010678055690000003722089836641764523_"  style="overflow:visible;"/>
	</clipPath>
	<path style="clip-path:url(#SVGID_00000119815392739713245980000018221600077006652033_);" d="M289.2,136.4l1.1-0.1l0.1,3.2
		c-3,0.6-5.6,0.9-7.9,0.9c-2.9,0-5-0.8-6.2-2.4c-1.3-1.6-1.9-4.1-1.9-7.6c0-6.9,2.8-10.4,8.5-10.4c5.5,0,8.2,3,8.2,8.9l-0.3,3h-12.1
		c0,1.6,0.4,2.8,1.1,3.6s1.9,1.1,3.8,1.1S287.3,136.6,289.2,136.4 M286.9,128.7c0-1.9-0.3-3.3-0.9-4c-0.6-0.8-1.6-1.2-3.1-1.2
		s-2.5,0.4-3.2,1.2c-0.7,0.8-1,2.1-1,4H286.9z"/>
</g>
<g>
	<defs>
		<rect id="SVGID_00000013885629787951450690000017441277912775708291_" x="-0.5" y="1.3" width="400" height="176.5"/>
	</defs>
	<clipPath id="SVGID_00000174580221778744502770000006085173780970902665_">
		<use xlink:href="#SVGID_00000013885629787951450690000017441277912775708291_"  style="overflow:visible;"/>
	</clipPath>
	<path style="clip-path:url(#SVGID_00000174580221778744502770000006085173780970902665_);" d="M299.4,139.9h-4.3v-19.5h4.2v1.2
		c1.9-1.1,3.7-1.6,5.4-1.6c2.6,0,4.4,0.7,5.3,2.2s1.4,3.9,1.4,7.3V140h-4.2v-10.4c0-2.1-0.2-3.6-0.7-4.5s-1.4-1.3-2.8-1.3
		c-1.3,0-2.6,0.3-3.8,0.8l-0.6,0.2v15.1H299.4z"/>
</g>
<g>
	<defs>
		<rect id="SVGID_00000052798324990572831300000000230021745168622256_" x="-0.5" y="1.3" width="400" height="176.5"/>
	</defs>
	<clipPath id="SVGID_00000052805513414037232790000007863636948623698315_">
		<use xlink:href="#SVGID_00000052798324990572831300000000230021745168622256_"  style="overflow:visible;"/>
	</clipPath>
	<path style="clip-path:url(#SVGID_00000052805513414037232790000007863636948623698315_);" d="M320.8,139.9h-4.3v-19.5h4.2v1.2
		c1.8-1.1,3.5-1.6,5.1-1.6c2.3,0,3.9,0.6,5,1.9c2.4-1.3,4.7-1.9,7.1-1.9c2.3,0,4,0.7,5,2.2s1.4,3.9,1.4,7.3V140H340v-10.4
		c0-2.1-0.2-3.6-0.6-4.5s-1.3-1.3-2.7-1.3c-1.2,0-2.4,0.3-3.8,0.8l-0.7,0.3c0.2,0.5,0.3,2.2,0.3,5V140h-4.2v-10
		c0-2.3-0.2-3.9-0.6-4.8s-1.3-1.3-2.7-1.3c-1.3,0-2.5,0.3-3.6,0.8l-0.6,0.2L320.8,139.9L320.8,139.9z"/>
</g>
<g>
	<defs>
		<rect id="SVGID_00000029734335081217038760000004455240792222554264_" x="-0.5" y="1.3" width="400" height="176.5"/>
	</defs>
	<clipPath id="SVGID_00000175291814623262257180000000614426918970962621_">
		<use xlink:href="#SVGID_00000029734335081217038760000004455240792222554264_"  style="overflow:visible;"/>
	</clipPath>
	<path style="clip-path:url(#SVGID_00000175291814623262257180000000614426918970962621_);" d="M363.7,126.4v8.9
		c0,0.6,0.2,1,0.4,1.3c0.3,0.3,0.7,0.4,1.3,0.5l-0.1,3.2c-2.2,0-4-0.5-5.2-1.4c-2.1,1-4.2,1.4-6.3,1.4c-3.9,0-5.8-2.1-5.8-6.2
		c0-2,0.5-3.4,1.6-4.3s2.7-1.4,4.9-1.6l5-0.4v-1.4c0-1-0.2-1.8-0.7-2.2c-0.5-0.4-1.1-0.6-2-0.6c-1.7,0-3.7,0.1-6.2,0.3l-1.2,0.1
		l-0.2-3c2.8-0.7,5.4-1,7.8-1s4.1,0.5,5.2,1.5S363.7,124.2,363.7,126.4 M354.9,131.3c-1.8,0.2-2.7,1.1-2.7,2.9
		c0,1.8,0.8,2.7,2.4,2.7c1.3,0,2.7-0.2,4.1-0.6l0.7-0.2v-5.2L354.9,131.3z"/>
</g>
<g>
	<defs>
		<rect id="SVGID_00000011746100193365457370000010297070371075350710_" x="-0.5" y="1.3" width="400" height="176.5"/>
	</defs>
	<clipPath id="SVGID_00000067216310472741808630000012945203657932869035_">
		<use xlink:href="#SVGID_00000011746100193365457370000010297070371075350710_"  style="overflow:visible;"/>
	</clipPath>
	<path style="clip-path:url(#SVGID_00000067216310472741808630000012945203657932869035_);" d="M369,139.9v-19.5h4.2v2.3
		c2.2-1.4,4.4-2.4,6.6-2.8v4.3c-2.2,0.4-4.2,1-5.7,1.7l-0.9,0.4v13.6H369z"/>
</g>
<g>
	<defs>
		<rect id="SVGID_00000033356599294854457760000012235395726506360458_" x="-0.5" y="1.3" width="400" height="176.5"/>
	</defs>
	<clipPath id="SVGID_00000163774501035107287460000002201447497453278853_">
		<use xlink:href="#SVGID_00000033356599294854457760000012235395726506360458_"  style="overflow:visible;"/>
	</clipPath>
	<polygon style="clip-path:url(#SVGID_00000163774501035107287460000002201447497453278853_);" points="387.4,139.9 383.1,139.9 
		383.1,112.3 387.4,112.3 387.4,128.3 389.8,128 394.4,120.4 399.2,120.4 393.6,129.5 399.5,139.9 394.7,139.9 389.9,131.7 
		387.4,132 	"/>
</g>
<g>
	<defs>
		<rect id="SVGID_00000138539074511343340010000005069649827135584390_" x="-0.5" y="1.3" width="400" height="176.5"/>
	</defs>
	<clipPath id="SVGID_00000060007255862563387580000009955431843163134613_">
		<use xlink:href="#SVGID_00000138539074511343340010000005069649827135584390_"  style="overflow:visible;"/>
	</clipPath>
	<polygon style="clip-path:url(#SVGID_00000060007255862563387580000009955431843163134613_);" points="14.6,177.1 23.3,155.7 
		25.3,156.5 16.7,177.8 	"/>
</g>
<g>
	<defs>
		<rect id="SVGID_00000014611188713554035720000003380807749697842571_" x="-0.5" y="1.3" width="400" height="176.5"/>
	</defs>
	<clipPath id="SVGID_00000043456196026815628750000003394071768818740639_">
		<use xlink:href="#SVGID_00000014611188713554035720000003380807749697842571_"  style="overflow:visible;"/>
	</clipPath>
	<polygon style="clip-path:url(#SVGID_00000043456196026815628750000003394071768818740639_);" points="35.6,177.4 35.6,156.2 
		39.8,156.2 45.8,174.1 51.8,156.2 56.1,156.2 56.1,177.4 53.7,177.4 53.7,158.7 53.3,158.7 47.2,176.6 44.5,176.6 38.4,158.7 
		37.9,158.7 37.9,177.4 	"/>
</g>
<g>
	<defs>
		<rect id="SVGID_00000101075539886472157820000010592731657485186442_" x="-0.5" y="1.3" width="400" height="176.5"/>
	</defs>
	<clipPath id="SVGID_00000077313543818601875110000005899512631468268206_">
		<use xlink:href="#SVGID_00000101075539886472157820000010592731657485186442_"  style="overflow:visible;"/>
	</clipPath>
	<path style="clip-path:url(#SVGID_00000077313543818601875110000005899512631468268206_);" d="M71.1,175.5l0.9-0.1l0.1,1.8
		c-2.3,0.3-4.3,0.5-6,0.5c-2.2,0-3.8-0.6-4.7-1.9c-0.9-1.3-1.4-3.3-1.4-6c0-5.4,2.1-8,6.4-8c2.1,0,3.6,0.6,4.6,1.7
		c1,1.2,1.5,3,1.5,5.4l-0.1,1.7h-10c0,1.7,0.3,2.9,0.9,3.8c0.6,0.8,1.7,1.2,3.2,1.2C68,175.7,69.6,175.6,71.1,175.5 M70.3,168.8
		c0-1.9-0.3-3.2-0.9-4s-1.6-1.2-2.9-1.2c-1.4,0-2.4,0.4-3.1,1.2s-1,2.1-1.1,3.9h8V168.8z"/>
</g>
<g>
	<defs>
		<rect id="SVGID_00000012456389198768938770000014302084127565974681_" x="-0.5" y="1.3" width="400" height="176.5"/>
	</defs>
	<clipPath id="SVGID_00000018942918811506378500000005329200288178338698_">
		<use xlink:href="#SVGID_00000012456389198768938770000014302084127565974681_"  style="overflow:visible;"/>
	</clipPath>
	<path style="clip-path:url(#SVGID_00000018942918811506378500000005329200288178338698_);" d="M87.9,155.4v22h-2.3v-1
		c-1.6,0.9-3.1,1.3-4.7,1.3c-0.8,0-1.5-0.1-2.1-0.3s-1.2-0.6-1.7-1.1c-1.1-1.1-1.7-3.1-1.7-6.1s0.5-5.1,1.5-6.4c1-1.3,2.6-2,4.9-2
		c1.2,0,2.4,0.1,3.8,0.4v-6.8L87.9,155.4L87.9,155.4z M80,175.4c0.4,0.1,0.8,0.2,1.4,0.2s1.2-0.1,2-0.3c0.7-0.2,1.3-0.4,1.7-0.6
		l0.6-0.3V164c-1.3-0.2-2.5-0.4-3.6-0.4c-1.6,0-2.6,0.5-3.2,1.5s-0.9,2.5-0.9,4.6c0,2.4,0.4,4,1.1,4.8C79.3,175,79.6,175.3,80,175.4
		"/>
</g>
<g>
	<defs>
		<rect id="SVGID_00000137125606574665893560000008550676333194333576_" x="-0.5" y="1.3" width="400" height="176.5"/>
	</defs>
	<clipPath id="SVGID_00000025426554551703365030000008083376060952364978_">
		<use xlink:href="#SVGID_00000137125606574665893560000008550676333194333576_"  style="overflow:visible;"/>
	</clipPath>
	<path style="clip-path:url(#SVGID_00000025426554551703365030000008083376060952364978_);" d="M92.4,156h2.3v2.7h-2.3V156z
		 M92.4,162.1h2.3v15.3h-2.3V162.1z"/>
</g>
<g>
	<defs>
		<rect id="SVGID_00000012437919345009099830000005040984376603077270_" x="-0.5" y="1.3" width="400" height="176.5"/>
	</defs>
	<clipPath id="SVGID_00000011029219689724732400000004230944649145432747_">
		<use xlink:href="#SVGID_00000012437919345009099830000005040984376603077270_"  style="overflow:visible;"/>
	</clipPath>
	<path style="clip-path:url(#SVGID_00000011029219689724732400000004230944649145432747_);" d="M109.5,175.5l0.9-0.1l0.1,1.8
		c-2.3,0.3-4.3,0.5-6,0.5c-2.2,0-3.8-0.6-4.7-1.9c-0.9-1.3-1.4-3.3-1.4-6c0-5.4,2.1-8,6.4-8c2.1,0,3.6,0.6,4.6,1.7
		c1,1.2,1.5,3,1.5,5.4l-0.1,1.7h-10.1c0,1.7,0.3,2.9,0.9,3.8c0.6,0.8,1.7,1.2,3.2,1.2C106.4,175.7,107.9,175.6,109.5,175.5
		 M108.7,168.8c0-1.9-0.3-3.2-0.9-4s-1.6-1.2-2.9-1.2c-1.4,0-2.4,0.4-3.1,1.2s-1,2.1-1.1,3.9h8V168.8z"/>
</g>
<g>
	<defs>
		<rect id="SVGID_00000119825866208871914180000016873485606593750957_" x="-0.5" y="1.3" width="400" height="176.5"/>
	</defs>
	<clipPath id="SVGID_00000076582919463533463370000007174487299798894481_">
		<use xlink:href="#SVGID_00000119825866208871914180000016873485606593750957_"  style="overflow:visible;"/>
	</clipPath>
	<path style="clip-path:url(#SVGID_00000076582919463533463370000007174487299798894481_);" d="M119.3,163.8c-2.2,0-3.3,0.8-3.3,2.3
		c0,0.7,0.3,1.2,0.8,1.5s1.7,0.6,3.5,0.9c1.8,0.3,3.1,0.8,3.9,1.3c0.8,0.6,1.1,1.6,1.1,3.2c0,1.6-0.5,2.7-1.5,3.5
		c-1,0.7-2.5,1.1-4.4,1.1c-1.3,0-2.8-0.1-4.5-0.4L114,177l0.1-2c2.3,0.3,4.1,0.5,5.3,0.5c1.2,0,2.1-0.2,2.7-0.6
		c0.6-0.4,0.9-1,0.9-1.9s-0.3-1.5-0.8-1.8s-1.7-0.6-3.5-0.9c-1.8-0.3-3.1-0.7-3.8-1.3c-0.8-0.6-1.1-1.6-1.1-3.1s0.5-2.6,1.6-3.3
		s2.4-1.1,3.9-1.1c1.2,0,2.8,0.1,4.7,0.4l0.9,0.2l-0.1,2C122.4,164,120.6,163.8,119.3,163.8"/>
</g>
<g>
	<defs>
		<rect id="SVGID_00000027596415797948625970000009972183576054643358_" x="-0.5" y="1.3" width="400" height="176.5"/>
	</defs>
	<clipPath id="SVGID_00000089542009098863686850000004189494084182686651_">
		<use xlink:href="#SVGID_00000027596415797948625970000009972183576054643358_"  style="overflow:visible;"/>
	</clipPath>
	<polygon style="clip-path:url(#SVGID_00000089542009098863686850000004189494084182686651_);" points="131.1,177.4 128.8,177.4 
		128.8,155.4 131.1,155.4 131.1,168.4 133.4,168.3 137.8,162.1 140.4,162.1 135.4,169.1 140.6,177.4 138,177.4 133.5,170.3 
		131.1,170.4 	"/>
</g>
<g>
	<defs>
		<rect id="SVGID_00000056416998366189346820000012661599320529715645_" x="-0.5" y="1.3" width="400" height="176.5"/>
	</defs>
	<clipPath id="SVGID_00000028322897671862118010000012347418190204094142_">
		<use xlink:href="#SVGID_00000056416998366189346820000012661599320529715645_"  style="overflow:visible;"/>
	</clipPath>
	<path style="clip-path:url(#SVGID_00000028322897671862118010000012347418190204094142_);" d="M142.3,169.7c0-2.8,0.5-4.8,1.5-6.1
		c1-1.2,2.7-1.9,5.1-1.9c2.4,0,4.1,0.6,5,1.9c1,1.2,1.5,3.3,1.5,6.1s-0.5,4.8-1.4,6.1s-2.7,1.9-5.1,1.9s-4.2-0.6-5.1-1.9
		C142.8,174.5,142.3,172.5,142.3,169.7 M144.7,169.6c0,2.2,0.3,3.8,0.8,4.7s1.7,1.3,3.4,1.3s2.9-0.4,3.4-1.3
		c0.5-0.9,0.8-2.5,0.8-4.7s-0.3-3.8-0.9-4.6c-0.6-0.8-1.7-1.3-3.3-1.3s-2.7,0.4-3.3,1.3C145,165.9,144.7,167.4,144.7,169.6"/>
</g>
<g>
	<defs>
		<rect id="SVGID_00000103238106700955080170000016171205205597371551_" x="-0.5" y="1.3" width="400" height="176.5"/>
	</defs>
	<clipPath id="SVGID_00000017499800899418853270000005003076341866404767_">
		<use xlink:href="#SVGID_00000103238106700955080170000016171205205597371551_"  style="overflow:visible;"/>
	</clipPath>
	
		<rect x="159.4" y="155.4" style="clip-path:url(#SVGID_00000017499800899418853270000005003076341866404767_);" width="2.3" height="22"/>
</g>
<g>
	<defs>
		<rect id="SVGID_00000158711316937977238850000007415030611646870660_" x="-0.5" y="1.3" width="400" height="176.5"/>
	</defs>
	<clipPath id="SVGID_00000035513262103799444460000011806156393119594895_">
		<use xlink:href="#SVGID_00000158711316937977238850000007415030611646870660_"  style="overflow:visible;"/>
	</clipPath>
	<path style="clip-path:url(#SVGID_00000035513262103799444460000011806156393119594895_);" d="M176.6,175.5l0.9-0.1l0.1,1.8
		c-2.3,0.3-4.3,0.5-6,0.5c-2.2,0-3.8-0.6-4.7-1.9c-0.9-1.3-1.4-3.3-1.4-6c0-5.4,2.1-8,6.4-8c2.1,0,3.6,0.6,4.6,1.7
		c1,1.2,1.5,3,1.5,5.4l-0.1,1.7h-10.1c0,1.7,0.3,2.9,0.9,3.8c0.6,0.8,1.7,1.2,3.2,1.2C173.5,175.7,175.1,175.6,176.6,175.5
		 M175.8,168.8c0-1.9-0.3-3.2-0.9-4c-0.6-0.8-1.6-1.2-2.9-1.2c-1.4,0-2.4,0.4-3.1,1.2c-0.7,0.8-1,2.1-1.1,3.9h8V168.8z"/>
</g>
<g>
	<defs>
		<rect id="SVGID_00000121246543963809386420000005338541530090681278_" x="-0.5" y="1.3" width="400" height="176.5"/>
	</defs>
	<clipPath id="SVGID_00000047044732474283750980000010435655787198685361_">
		<use xlink:href="#SVGID_00000121246543963809386420000005338541530090681278_"  style="overflow:visible;"/>
	</clipPath>
	<path style="clip-path:url(#SVGID_00000047044732474283750980000010435655787198685361_);" d="M181.7,177.4v-15.3h2.3v2.1
		c1.8-1.2,3.6-2,5.6-2.4v2.3c-0.9,0.2-1.8,0.4-2.7,0.8c-0.9,0.3-1.6,0.7-2.1,0.9l-0.8,0.4v11.2H181.7z"/>
</g>
<g>
	<defs>
		<rect id="SVGID_00000179609817631955439160000015557839347221219732_" x="-0.5" y="1.3" width="400" height="176.5"/>
	</defs>
	<clipPath id="SVGID_00000101069304920801871100000017509031444173923518_">
		<use xlink:href="#SVGID_00000179609817631955439160000015557839347221219732_"  style="overflow:visible;"/>
	</clipPath>
	<path style="clip-path:url(#SVGID_00000101069304920801871100000017509031444173923518_);" d="M194.6,177.4h-2.3v-15.3h2.3v1.1
		c1.7-0.9,3.2-1.4,4.7-1.4c2,0,3.4,0.6,4.1,1.7c0.7,1.1,1.1,3.1,1.1,5.9v8.1h-2.3v-8c0-2.1-0.2-3.6-0.6-4.4
		c-0.4-0.8-1.3-1.2-2.7-1.2c-0.7,0-1.3,0.1-2.1,0.3c-0.7,0.2-1.3,0.4-1.7,0.6l-0.6,0.3v12.3H194.6z"/>
</g>
<g>
	<defs>
		<rect id="SVGID_00000101073543338330060890000012875508221367688622_" x="-0.5" y="1.3" width="400" height="176.5"/>
	</defs>
	<clipPath id="SVGID_00000061468975973209791270000016823336728965083273_">
		<use xlink:href="#SVGID_00000101073543338330060890000012875508221367688622_"  style="overflow:visible;"/>
	</clipPath>
	<path style="clip-path:url(#SVGID_00000061468975973209791270000016823336728965083273_);" d="M219.1,175.5l0.9-0.1l0.1,1.8
		c-2.3,0.3-4.3,0.5-6,0.5c-2.2,0-3.8-0.6-4.7-1.9c-0.9-1.3-1.4-3.3-1.4-6c0-5.4,2.1-8,6.4-8c2.1,0,3.6,0.6,4.6,1.7
		c1,1.2,1.5,3,1.5,5.4l-0.1,1.7h-10.1c0,1.7,0.3,2.9,0.9,3.8c0.6,0.8,1.7,1.2,3.2,1.2C216,175.7,217.5,175.6,219.1,175.5
		 M218.3,168.8c0-1.9-0.3-3.2-0.9-4c-0.6-0.8-1.6-1.2-2.9-1.2c-1.4,0-2.4,0.4-3.1,1.2c-0.7,0.8-1,2.1-1.1,3.9h8V168.8z"/>
</g>
</svg>
